<svg 
 xmlns="http://www.w3.org/2000/svg"
 xmlns:xlink="http://www.w3.org/1999/xlink"
 width="23px" height="40px">
<path fill-rule="evenodd"  fill="rgb(212, 212, 212)"
 d="M1.002,5.024 L16.066,19.994 L0.805,35.159 L0.806,35.160 C0.307,35.674 0.000,36.373 0.000,37.143 C0.000,38.721 1.287,40.000 2.875,40.000 C3.650,40.000 4.353,39.695 4.870,39.199 L4.871,39.200 L22.121,22.057 L22.120,22.056 C22.662,21.537 23.000,20.808 23.000,20.000 C23.000,19.998 23.000,19.996 23.000,19.994 C23.000,19.991 23.000,19.990 23.000,19.988 C23.000,19.180 22.662,18.451 22.120,17.931 L22.121,17.931 L4.871,0.788 L4.864,0.795 C4.347,0.303 3.647,-0.000 2.875,-0.000 C1.287,-0.000 0.000,1.279 0.000,2.857 C0.000,3.724 0.389,4.500 1.002,5.024 Z"/>
</svg>