<svg 
 xmlns="http://www.w3.org/2000/svg"
 xmlns:xlink="http://www.w3.org/1999/xlink"
 width="24px" height="21px">
<path fill-rule="evenodd"  fill="rgb(221, 64, 112)"
 d="M20.344,5.107 L20.344,8.717 L18.881,8.717 L18.881,5.107 L15.225,5.107 L15.225,3.631 L18.881,3.631 L18.881,0.021 L20.344,0.021 L20.344,3.631 L24.000,3.631 L24.000,5.107 L20.344,5.107 ZM10.231,1.452 C11.529,2.178 12.289,3.358 12.289,4.901 C12.289,6.197 11.498,7.218 10.478,8.010 C9.482,8.783 9.293,9.107 9.293,9.765 C9.293,10.325 10.360,11.280 10.917,11.672 C12.548,12.818 13.030,13.881 13.030,15.657 C13.030,17.872 10.917,20.346 7.011,20.346 C3.583,20.346 0.600,18.687 0.600,16.472 C0.600,14.223 3.329,12.053 6.756,12.053 C7.130,12.053 7.472,12.038 7.826,12.038 C7.357,11.585 6.986,11.020 6.986,10.335 C6.986,9.929 7.117,9.521 7.299,9.173 C7.113,9.186 6.923,9.156 6.727,9.156 C3.912,9.156 2.026,7.097 2.026,4.632 C2.026,2.219 4.630,-0.001 7.398,-0.001 C8.940,-0.001 13.569,-0.001 13.569,-0.001 L12.188,1.452 L10.231,1.452 ZM7.409,12.627 C5.040,12.602 2.918,14.062 2.918,15.816 C2.918,17.606 4.629,18.914 6.998,18.914 C10.328,18.914 11.489,17.697 11.489,15.908 C11.489,15.692 11.462,15.481 11.413,15.275 C11.153,14.262 10.231,13.761 8.944,12.872 C8.477,12.721 7.962,12.633 7.409,12.627 ZM10.071,4.928 C9.796,2.855 8.216,1.189 6.626,1.142 C5.036,1.095 3.970,2.682 4.245,4.757 C4.519,6.832 6.030,8.552 7.620,8.599 C9.209,8.647 10.345,7.004 10.071,4.928 Z"/>
</svg>