<svg 
 xmlns="http://www.w3.org/2000/svg"
 xmlns:xlink="http://www.w3.org/1999/xlink"
 width="22px" height="21px">
<path fill-rule="evenodd"  fill="rgb(38, 101, 142)"
 d="M18.550,21.000 L2.950,21.000 C1.514,21.000 0.350,19.825 0.350,18.375 L0.350,2.625 C0.350,1.175 1.514,0.000 2.950,0.000 L18.550,0.000 C19.986,0.000 21.150,1.175 21.150,2.625 L21.150,18.375 C21.150,19.825 19.986,21.000 18.550,21.000 ZM10.750,6.431 C9.129,6.431 7.735,7.400 7.095,8.794 L7.092,8.794 C7.085,8.809 7.080,8.824 7.074,8.839 C7.036,8.925 7.002,9.013 6.969,9.103 C6.954,9.145 6.937,9.187 6.923,9.230 C6.893,9.321 6.869,9.415 6.846,9.509 C6.835,9.553 6.822,9.596 6.812,9.640 C6.791,9.739 6.776,9.840 6.762,9.942 C6.757,9.983 6.748,10.023 6.744,10.065 C6.729,10.208 6.720,10.353 6.720,10.500 C6.720,12.747 8.524,14.569 10.750,14.569 C12.976,14.569 14.780,12.747 14.780,10.500 C14.780,10.353 14.771,10.208 14.756,10.065 C14.752,10.023 14.743,9.983 14.738,9.942 C14.724,9.840 14.709,9.739 14.688,9.640 C14.678,9.596 14.665,9.553 14.654,9.509 C14.631,9.415 14.607,9.321 14.577,9.230 C14.563,9.187 14.546,9.145 14.531,9.103 C14.498,9.013 14.465,8.925 14.426,8.839 C14.420,8.824 14.415,8.809 14.409,8.794 L14.405,8.794 C13.765,7.400 12.371,6.431 10.750,6.431 ZM18.810,3.413 C18.810,2.833 18.344,2.363 17.770,2.363 L15.690,2.363 C15.116,2.363 14.650,2.833 14.650,3.413 L14.650,5.513 C14.650,6.093 15.116,6.563 15.690,6.563 L17.770,6.563 C18.344,6.563 18.810,6.093 18.810,5.513 L18.810,3.413 ZM18.810,8.794 L16.893,8.794 C17.041,9.337 17.120,9.909 17.120,10.500 C17.120,14.052 14.268,16.932 10.750,16.932 C7.232,16.932 4.380,14.052 4.380,10.500 C4.380,9.909 4.459,9.337 4.607,8.794 L2.690,8.794 L2.690,17.588 C2.690,18.168 3.156,18.638 3.730,18.638 L17.770,18.638 C18.344,18.638 18.810,18.168 18.810,17.588 L18.810,8.794 Z"/>
</svg>