<svg 
 xmlns="http://www.w3.org/2000/svg"
 xmlns:xlink="http://www.w3.org/1999/xlink"
 width="33px" height="27px">
<path fill-rule="evenodd"  fill="#e1e1e1"
 d="M28.422,26.941 L4.422,26.982 C2.213,26.986 0.419,25.198 0.415,22.989 L0.385,4.989 C0.381,2.780 2.169,0.986 4.378,0.982 L28.378,0.941 C30.587,0.937 32.381,2.725 32.384,4.935 L32.415,22.934 C32.419,25.143 30.631,26.937 28.422,26.941 ZM30.385,4.938 C30.383,3.833 29.486,2.939 28.381,2.941 L4.381,2.982 C3.277,2.984 2.383,3.881 2.385,4.985 L2.415,22.985 C2.417,24.090 3.314,24.984 4.418,24.982 L28.419,24.941 C29.523,24.939 30.417,24.042 30.415,22.938 L30.385,4.938 ZM26.400,13.944 L22.400,13.951 C21.295,13.953 20.398,13.059 20.396,11.955 L20.390,7.955 C20.388,6.850 21.282,5.953 22.386,5.951 L26.386,5.945 C27.491,5.943 28.388,6.837 28.390,7.941 L28.396,11.941 C28.398,13.046 27.504,13.943 26.400,13.944 ZM26.391,8.945 C26.390,8.392 25.942,7.946 25.390,7.947 L23.390,7.950 C22.837,7.951 22.390,8.399 22.391,8.951 L22.395,10.951 C22.396,11.504 22.844,11.951 23.396,11.949 L25.396,11.946 C25.949,11.945 26.396,11.497 26.395,10.945 L26.391,8.945 ZM17.413,21.960 L5.413,21.980 C4.861,21.981 4.413,21.534 4.412,20.982 C4.411,20.430 4.858,19.981 5.410,19.980 L17.410,19.960 C17.962,19.959 18.411,20.406 18.412,20.958 C18.413,21.510 17.966,21.959 17.413,21.960 ZM17.407,17.960 L5.407,17.980 C4.854,17.981 4.406,17.534 4.405,16.982 C4.404,16.430 4.851,15.981 5.403,15.980 L17.403,15.960 C17.956,15.959 18.404,16.406 18.405,16.958 C18.406,17.510 17.959,17.959 17.407,17.960 Z"/>
</svg>