<svg 
 xmlns="http://www.w3.org/2000/svg"
 xmlns:xlink="http://www.w3.org/1999/xlink"
 width="19px" height="19px">
<path fill-rule="evenodd"  fill="rgb(109, 110, 113)"
 d="M9.723,18.600 C4.735,18.600 0.692,14.507 0.692,9.457 C0.692,4.408 4.735,0.314 9.723,0.314 C14.710,0.314 18.753,4.408 18.753,9.457 C18.753,14.507 14.710,18.600 9.723,18.600 ZM16.268,13.931 C17.024,12.803 17.502,11.469 17.603,10.029 L13.085,10.029 C13.056,11.091 12.968,12.128 12.802,13.119 C14.024,13.294 15.187,13.567 16.268,13.931 ZM7.491,10.029 C7.521,11.035 7.611,12.025 7.782,12.975 C8.417,12.919 9.063,12.886 9.723,12.886 C10.382,12.886 11.028,12.919 11.663,12.975 C11.834,12.025 11.924,11.035 11.954,10.029 L7.491,10.029 ZM11.954,8.886 C11.924,7.880 11.834,6.890 11.663,5.939 C11.028,5.996 10.382,6.029 9.723,6.029 C9.063,6.029 8.417,5.996 7.782,5.939 C7.611,6.890 7.521,7.880 7.491,8.886 L11.954,8.886 ZM15.490,14.916 C14.569,14.622 13.595,14.397 12.581,14.245 C12.344,15.292 12.037,16.286 11.661,17.205 C13.150,16.823 14.472,16.015 15.490,14.916 ZM9.175,17.429 C9.356,17.442 9.538,17.457 9.723,17.457 C9.908,17.457 10.089,17.442 10.270,17.429 C10.751,16.416 11.140,15.290 11.428,14.094 C10.867,14.045 10.298,14.015 9.723,14.015 C9.147,14.015 8.578,14.045 8.017,14.094 C8.305,15.290 8.694,16.416 9.175,17.429 ZM7.784,17.205 C7.408,16.286 7.101,15.292 6.864,14.245 C5.850,14.397 4.876,14.622 3.955,14.916 C4.973,16.015 6.295,16.823 7.784,17.205 ZM6.643,13.119 C6.477,12.128 6.389,11.091 6.360,10.029 L1.842,10.029 C1.943,11.469 2.421,12.803 3.178,13.931 C4.258,13.567 5.421,13.294 6.643,13.119 ZM3.178,4.983 C2.421,6.112 1.943,7.445 1.842,8.886 L6.360,8.886 C6.389,7.824 6.477,6.786 6.643,5.796 C5.421,5.620 4.258,5.347 3.178,4.983 ZM3.955,3.998 C4.876,4.293 5.850,4.518 6.864,4.669 C7.101,3.623 7.408,2.629 7.784,1.710 C6.295,2.091 4.973,2.899 3.955,3.998 ZM10.270,1.485 C10.089,1.472 9.908,1.457 9.723,1.457 C9.538,1.457 9.356,1.472 9.175,1.485 C8.694,2.498 8.305,3.625 8.017,4.821 C8.578,4.870 9.147,4.900 9.723,4.900 C10.298,4.900 10.867,4.870 11.428,4.821 C11.140,3.625 10.751,2.498 10.270,1.485 ZM11.661,1.710 C12.037,2.629 12.344,3.623 12.581,4.669 C13.596,4.518 14.569,4.293 15.490,3.998 C14.472,2.899 13.150,2.091 11.661,1.710 ZM12.802,5.796 C12.968,6.786 13.056,7.824 13.085,8.886 L17.603,8.886 C17.502,7.445 17.024,6.112 16.268,4.983 C15.187,5.347 14.024,5.620 12.802,5.796 Z"/>
</svg>