<svg 
 xmlns="http://www.w3.org/2000/svg"
 xmlns:xlink="http://www.w3.org/1999/xlink"
 width="18px" height="17px">
<path fill-rule="evenodd"  fill="rgb(109, 110, 113)"
 d="M16.923,14.491 L12.097,11.200 L7.808,11.200 L7.808,15.589 C7.808,16.194 7.328,16.686 6.735,16.686 L5.127,16.686 C4.534,16.686 4.054,16.194 4.054,15.589 L4.054,11.200 C4.054,11.164 4.061,11.130 4.065,11.095 C2.210,10.733 0.837,9.408 0.837,7.360 C0.837,4.936 2.758,3.520 5.127,3.520 L12.097,3.520 L16.923,0.229 C17.516,0.229 17.996,0.720 17.996,1.326 L17.996,13.394 C17.996,14.000 17.516,14.491 16.923,14.491 ZM5.127,15.040 C5.127,15.343 5.367,15.589 5.663,15.589 L6.199,15.589 C6.495,15.589 6.735,15.343 6.735,15.040 L6.735,11.200 C6.467,11.200 5.959,11.200 5.663,11.200 L5.127,11.200 L5.127,15.040 ZM5.127,4.617 C4.026,4.581 1.909,4.936 1.909,7.360 C1.909,9.784 4.061,10.103 5.127,10.103 L9.416,10.103 L9.416,4.617 L5.127,4.617 ZM12.097,8.963 C12.097,8.931 12.097,8.897 12.097,8.872 C12.097,8.396 12.097,8.960 12.097,7.909 C12.097,7.758 12.097,7.585 12.097,7.360 C12.097,4.936 12.097,7.390 12.097,4.617 L10.489,4.617 L10.489,10.103 L12.097,10.103 C12.097,9.506 12.097,9.168 12.097,8.963 ZM16.923,12.023 L16.923,2.697 C16.923,2.243 16.923,1.994 16.923,1.326 L13.170,4.069 C13.170,4.570 13.170,4.712 13.170,5.166 L13.170,9.554 C13.170,10.009 13.170,9.768 13.170,10.652 L16.923,13.394 C16.923,12.777 16.923,12.477 16.923,12.023 Z"/>
</svg>