<svg 
 xmlns="http://www.w3.org/2000/svg"
 xmlns:xlink="http://www.w3.org/1999/xlink"
 width="19px" height="19px">
<path fill-rule="evenodd"  fill="rgb(109, 110, 113)"
 d="M15.828,18.600 L2.371,18.600 C1.132,18.600 0.128,17.583 0.128,16.328 L0.128,2.694 C0.128,1.439 1.147,0.314 2.385,0.314 L15.932,0.314 C17.171,0.314 18.189,1.345 18.189,2.600 L18.189,16.314 C18.189,17.569 17.067,18.600 15.828,18.600 ZM17.061,2.600 C17.061,1.972 16.551,1.457 15.932,1.457 L2.385,1.457 C1.766,1.457 1.249,2.067 1.249,2.694 L1.249,16.328 C1.249,16.955 1.751,17.464 2.371,17.464 L15.828,17.464 C16.448,17.464 17.061,16.942 17.061,16.314 L17.061,2.600 ZM13.674,12.886 L4.643,12.886 C4.331,12.886 4.079,12.630 4.079,12.314 C4.079,11.999 4.331,11.743 4.643,11.743 L13.674,11.743 C13.986,11.743 14.238,11.999 14.238,12.314 C14.238,12.630 13.986,12.886 13.674,12.886 ZM13.674,9.457 L4.643,9.457 C4.331,9.457 4.079,9.201 4.079,8.886 C4.079,8.570 4.331,8.314 4.643,8.314 L13.674,8.314 C13.986,8.314 14.238,8.570 14.238,8.886 C14.238,9.201 13.986,9.457 13.674,9.457 ZM13.674,6.029 L4.643,6.029 C4.331,6.029 4.079,5.773 4.079,5.457 C4.079,5.142 4.331,4.886 4.643,4.886 L13.674,4.886 C13.986,4.886 14.238,5.142 14.238,5.457 C14.238,5.773 13.986,6.029 13.674,6.029 Z"/>
</svg>