<svg 
 xmlns="http://www.w3.org/2000/svg"
 xmlns:xlink="http://www.w3.org/1999/xlink"
 width="20px" height="22px">
<path fill-rule="evenodd"  fill="rgb(109, 110, 113)"
 d="M16.464,21.600 L3.563,21.600 C2.138,21.600 0.982,20.424 0.982,18.972 L0.982,5.828 C0.982,4.377 2.138,3.200 3.563,3.200 L5.498,3.200 L5.498,1.886 L7.235,1.886 C7.794,1.103 8.822,0.572 10.013,0.572 C11.204,0.572 12.232,1.103 12.791,1.886 L14.529,1.886 L14.529,3.200 L16.464,3.200 C17.889,3.200 19.044,4.377 19.044,5.828 L19.044,18.972 C19.044,20.424 17.889,21.600 16.464,21.600 ZM13.239,3.200 L11.805,3.200 C11.805,2.474 11.003,1.886 10.013,1.886 C9.024,1.886 8.221,2.474 8.221,3.200 L6.788,3.200 L6.788,5.828 L13.239,5.828 L13.239,3.200 ZM17.754,5.828 C17.754,5.103 17.176,4.514 16.464,4.514 L14.529,4.514 L14.529,7.143 L5.498,7.143 L5.498,4.514 L3.563,4.514 C2.850,4.514 2.273,5.103 2.273,5.828 L2.273,18.972 C2.273,19.697 2.850,20.286 3.563,20.286 L16.464,20.286 C17.176,20.286 17.754,19.697 17.754,18.972 L17.754,5.828 ZM14.529,17.657 L5.498,17.657 C5.142,17.657 4.853,17.363 4.853,17.000 C4.853,16.637 5.142,16.343 5.498,16.343 L14.529,16.343 C14.885,16.343 15.174,16.637 15.174,17.000 C15.174,17.363 14.885,17.657 14.529,17.657 ZM14.529,14.372 L5.498,14.372 C5.142,14.372 4.853,14.077 4.853,13.715 C4.853,13.352 5.142,13.057 5.498,13.057 L14.529,13.057 C14.885,13.057 15.174,13.352 15.174,13.715 C15.174,14.077 14.885,14.372 14.529,14.372 ZM14.529,11.086 L5.498,11.086 C5.142,11.086 4.853,10.791 4.853,10.429 C4.853,10.066 5.142,9.771 5.498,9.771 L14.529,9.771 C14.885,9.771 15.174,10.066 15.174,10.429 C15.174,10.791 14.885,11.086 14.529,11.086 Z"/>
</svg>