<svg 
 xmlns="http://www.w3.org/2000/svg"
 xmlns:xlink="http://www.w3.org/1999/xlink"
 width="88px" height="91px">
<path fill-rule="evenodd"  fill="rgb(187, 237, 255)"
 d="M69.434,71.398 C72.634,67.437 75.495,62.887 78.015,57.746 C80.535,52.607 82.515,47.336 83.955,41.935 L64.874,41.935 C62.794,49.296 60.333,55.316 57.493,59.997 L40.452,43.375 C46.612,39.815 51.073,36.065 53.833,32.124 C56.593,28.185 57.973,23.834 57.973,19.073 C57.973,13.274 55.743,8.643 51.283,5.182 C46.822,1.723 40.872,-0.008 33.431,-0.008 C25.631,-0.008 19.400,1.852 14.740,5.572 C10.079,9.293 7.749,14.193 7.749,20.273 C7.749,23.994 8.429,27.424 9.790,30.564 C11.149,33.705 13.330,36.995 16.330,40.435 C10.450,43.795 6.299,47.406 3.879,51.266 C1.458,55.127 0.249,59.797 0.249,65.277 C0.249,72.918 3.108,78.979 8.830,83.458 C14.550,87.939 22.290,90.179 32.051,90.179 C41.691,90.179 50.332,87.519 57.973,82.198 L64.874,88.979 L87.496,88.979 L69.434,71.398 ZM21.521,56.876 C22.860,54.956 24.690,53.117 27.011,51.356 L46.932,71.158 C42.892,73.598 38.352,74.818 33.311,74.818 C29.270,74.818 25.961,73.798 23.381,71.758 C20.800,69.717 19.510,66.978 19.510,63.537 C19.510,61.017 20.180,58.797 21.521,56.876 ZM38.292,27.504 C36.451,29.364 33.811,31.254 30.371,33.174 C26.570,28.935 24.671,25.054 24.671,21.533 C24.671,19.174 25.440,17.354 26.981,16.073 C28.520,14.793 30.631,14.153 33.311,14.153 C35.592,14.153 37.452,14.763 38.892,15.983 C40.332,17.204 41.052,18.874 41.052,20.994 C41.052,23.474 40.131,25.644 38.292,27.504 Z"/>
</svg>