<svg 
 xmlns="http://www.w3.org/2000/svg"
 xmlns:xlink="http://www.w3.org/1999/xlink"
 width="25px" height="21px">
<path fill-rule="evenodd"  fill="rgb(31, 170, 226)"
 d="M17.001,0.658 C18.963,0.623 20.008,1.349 21.006,2.271 C21.853,2.198 22.954,1.718 23.602,1.383 C23.812,1.266 24.022,1.150 24.232,1.033 C23.862,2.049 23.360,2.844 22.588,3.447 C22.417,3.581 22.247,3.762 22.032,3.848 C22.032,3.852 22.032,3.856 22.032,3.860 C23.132,3.849 24.039,3.345 24.900,3.072 C24.900,3.076 24.900,3.080 24.900,3.084 C24.448,3.814 23.835,4.555 23.182,5.086 C22.918,5.299 22.654,5.511 22.391,5.724 C22.405,6.906 22.373,8.033 22.156,9.026 C20.890,14.799 17.537,18.718 12.229,20.397 C10.323,21.000 7.242,21.248 5.058,20.698 C3.975,20.425 2.997,20.117 2.079,19.709 C1.569,19.483 1.097,19.238 0.645,18.959 C0.497,18.867 0.348,18.775 0.200,18.683 C0.693,18.698 1.269,18.836 1.820,18.746 C2.318,18.664 2.806,18.686 3.266,18.583 C4.412,18.328 5.430,17.991 6.307,17.470 C6.732,17.218 7.377,16.921 7.679,16.557 C7.110,16.567 6.594,16.433 6.171,16.282 C4.532,15.694 3.578,14.614 2.957,12.992 C3.454,13.047 4.885,13.178 5.219,12.892 C4.594,12.857 3.992,12.489 3.563,12.216 C2.244,11.379 1.169,9.974 1.177,7.813 C1.350,7.896 1.523,7.980 1.696,8.063 C2.027,8.205 2.364,8.281 2.759,8.363 C2.926,8.398 3.260,8.498 3.451,8.426 C3.443,8.426 3.435,8.426 3.427,8.426 C3.171,8.124 2.756,7.924 2.499,7.600 C1.653,6.533 0.861,4.890 1.362,2.934 C1.489,2.438 1.691,2.000 1.906,1.596 C1.914,1.600 1.923,1.604 1.931,1.609 C2.029,1.818 2.249,1.971 2.388,2.146 C2.820,2.690 3.353,3.178 3.896,3.610 C5.747,5.079 7.413,5.981 10.090,6.650 C10.769,6.819 11.554,6.949 12.365,6.950 C12.137,6.277 12.210,5.187 12.389,4.535 C12.840,2.897 13.820,1.716 15.257,1.083 C15.601,0.932 15.982,0.822 16.382,0.733 C16.588,0.708 16.795,0.682 17.001,0.658 Z"/>
</svg>